<svg width="36" height="36" viewBox="0 0 36 36" fill="none" xmlns="http://www.w3.org/2000/svg">
<path d="M27.8108 22.6563C27.6093 22.8578 27.3335 22.9851 27.0153 22.9851C26.4001 22.9851 25.891 22.476 25.891 21.8608L25.891 10.1087L14.1389 10.1087C13.5237 10.1087 13.0146 9.59956 13.0146 8.98438C13.0146 8.36919 13.5237 7.86007 14.1389 7.86007L27.0153 7.86007C27.6305 7.86007 28.1396 8.36919 28.1396 8.98437L28.1396 21.8608C28.1396 22.179 28.0123 22.4548 27.8108 22.6563Z" fill="url(#paint0_linear_417_3251)"/>
<path d="M27.6305 9.96021L9.77955 27.8111C9.34468 28.246 8.62343 28.246 8.18856 27.8111C7.75369 27.3762 7.75369 26.655 8.18856 26.2201L26.0395 8.36922C26.4743 7.93435 27.1956 7.93435 27.6305 8.36922C28.0653 8.80409 28.0653 9.52534 27.6305 9.96021Z" fill="url(#paint1_linear_417_3251)"/>
<defs>
<linearGradient id="paint0_linear_417_3251" x1="15.6699" y1="5.86765" x2="27.4401" y2="3.23097" gradientUnits="userSpaceOnUse">
<stop stop-color="#00BAF7"/>
<stop offset="1" stop-color="#0089F0"/>
</linearGradient>
<linearGradient id="paint1_linear_417_3251" x1="14.9449" y1="19.4638" x2="16.8128" y2="21.0821" gradientUnits="userSpaceOnUse">
<stop stop-color="#00BAF7"/>
<stop offset="1" stop-color="#0089F0"/>
</linearGradient>
</defs>
</svg>
